<svg width="20" height="22" viewBox="0 0 20 22" fill="none" xmlns="http://www.w3.org/2000/svg">
<path d="M14 2.99994H17C17.5304 2.99994 18.0391 3.21065 18.4142 3.58573C18.7893 3.9608 19 4.46951 19 4.99994V5.99994M14 18.9999H17C17.5304 18.9999 18.0391 18.7892 18.4142 18.4142C18.7893 18.0391 19 17.5304 19 16.9999V15.9999M14.001 10.9999H19.001M19.001 10.9999L17.001 8.99994M19.001 10.9999L17.001 12.9999M2.425 18.4279L8.425 20.2279C8.72368 20.3176 9.03919 20.3362 9.34633 20.2822C9.65347 20.2282 9.94372 20.1031 10.1939 19.9169C10.4441 19.7308 10.6473 19.4887 10.7872 19.21C10.9272 18.9313 11.0001 18.6238 11 18.3119V3.68794C11.0001 3.37609 10.9272 3.06855 10.7872 2.78987C10.6473 2.5112 10.4441 2.26911 10.1939 2.08295C9.94372 1.89679 9.65347 1.77172 9.34633 1.71771C9.03919 1.66371 8.72368 1.68228 8.425 1.77194L2.425 3.57194C2.01302 3.6956 1.65189 3.9488 1.39519 4.29394C1.13849 4.63909 0.999906 5.0578 1 5.48794V16.5119C0.999906 16.9421 1.13849 17.3608 1.39519 17.7059C1.65189 18.0511 2.01302 18.3043 2.425 18.4279Z" stroke="white" stroke-width="2" stroke-linecap="round" stroke-linejoin="round"/>
</svg>
