<svg width="18" height="18" viewBox="0 0 18 18" fill="none" xmlns="http://www.w3.org/2000/svg">
<path fill-rule="evenodd" clip-rule="evenodd" d="M5 11.75C4.13805 11.75 3.3114 12.0924 2.7019 12.7019C2.09241 13.3114 1.75 14.138 1.75 15C1.75 15.3315 1.8817 15.6495 2.11612 15.8839C2.35054 16.1183 2.66848 16.25 3 16.25H15C15.3315 16.25 15.6495 16.1183 15.8839 15.8839C16.1183 15.6495 16.25 15.3315 16.25 15C16.25 14.138 15.9076 13.3114 15.2981 12.7019C14.6886 12.0924 13.862 11.75 13 11.75H5ZM1.64124 11.6412C2.53204 10.7504 3.74022 10.25 5 10.25H13C14.2598 10.25 15.468 10.7504 16.3588 11.6412C17.2496 12.532 17.75 13.7402 17.75 15C17.75 15.7293 17.4603 16.4288 16.9445 16.9445C16.4288 17.4603 15.7293 17.75 15 17.75H3C2.27065 17.75 1.57118 17.4603 1.05546 16.9445C0.539731 16.4288 0.25 15.7293 0.25 15C0.25 13.7402 0.750445 12.532 1.64124 11.6412Z" fill="white"/>
<path fill-rule="evenodd" clip-rule="evenodd" d="M9 1.75C7.75736 1.75 6.75 2.75736 6.75 4C6.75 5.24264 7.75736 6.25 9 6.25C10.2426 6.25 11.25 5.24264 11.25 4C11.25 2.75736 10.2426 1.75 9 1.75ZM5.25 4C5.25 1.92893 6.92893 0.25 9 0.25C11.0711 0.25 12.75 1.92893 12.75 4C12.75 6.07107 11.0711 7.75 9 7.75C6.92893 7.75 5.25 6.07107 5.25 4Z" fill="white"/>
</svg>
