<svg width="20" height="20" viewBox="0 0 20 20" fill="none" xmlns="http://www.w3.org/2000/svg">
<path fill-rule="evenodd" clip-rule="evenodd" d="M7.93467 5.30537C8.48246 4.75758 9.22543 4.44983 10.0001 4.44983C10.775 4.44983 11.518 4.75763 12.0659 5.30552C12.6138 5.8534 12.9216 6.5965 12.9216 7.37133C12.9216 8.14616 12.6138 8.88925 12.0659 9.43714C11.6986 9.80443 11.2436 10.0638 10.7501 10.1949V12.7988C10.7501 13.213 10.4143 13.5488 10.0001 13.5488C9.58591 13.5488 9.25012 13.213 9.25012 12.7988V10.1939C8.75676 10.0628 8.30186 9.80349 7.93467 9.43629C7.38687 8.88849 7.07913 8.14553 7.07913 7.37083C7.07913 6.59613 7.38687 5.85316 7.93467 5.30537ZM10.0317 8.79248C10.0212 8.79205 10.0107 8.79183 10.0001 8.79183C9.62325 8.79183 9.26182 8.64212 8.99533 8.37563C8.72884 8.10914 8.57913 7.7477 8.57913 7.37083C8.57913 6.99396 8.72884 6.63252 8.99533 6.36603C9.26182 6.09954 9.62325 5.94983 10.0001 5.94983C10.3771 5.94983 10.7387 6.09959 11.0053 6.36618C11.2719 6.63276 11.4216 6.99432 11.4216 7.37133C11.4216 7.74833 11.2719 8.1099 11.0053 8.37648C10.7461 8.63562 10.3972 8.78438 10.0317 8.79248Z" fill="#C12828"/>
<path fill-rule="evenodd" clip-rule="evenodd" d="M7.3277 0.427407C9.06354 -0.143771 10.9367 -0.143771 12.6725 0.427407L12.6754 0.428355L17.5892 2.06728C18.1229 2.24508 18.5871 2.58631 18.9161 3.04264C19.2451 3.49897 19.4221 4.04725 19.4221 4.60983V9.88856V9.88856V9.88983C19.4215 11.3196 19.0585 12.7259 18.3671 13.9774C17.6755 15.2291 16.6779 16.2851 15.4675 17.0466L11.4203 19.5908L11.4179 19.5923C10.9925 19.8574 10.5014 19.998 10.0001 19.998C9.4989 19.998 9.00771 19.8574 8.58236 19.5923L8.58005 19.5908L4.53205 17.0468C3.32172 16.285 2.32382 15.2286 1.63244 13.9767C0.941063 12.7248 0.578325 11.3181 0.578125 9.88793V4.60783C0.578435 4.04552 0.75561 3.49713 1.08457 3.04108C1.41349 2.58507 1.87752 2.24405 2.41095 2.06632V2.06632L7.3277 0.427407ZM17.9221 9.88857V4.60985C17.9221 4.36217 17.8442 4.12076 17.6993 3.91984C17.5545 3.71892 17.3501 3.56867 17.1151 3.49038L12.2037 1.85225L12.2023 1.85178C10.7718 1.38143 9.22835 1.38144 7.7979 1.85181L7.79655 1.85225L2.8853 3.48934C2.6504 3.56759 2.44595 3.71779 2.30111 3.91859C2.15631 4.11934 2.0783 4.36054 2.07812 4.60805V9.88772V9.88772C2.07831 11.0642 2.37673 12.2216 2.94551 13.2515C3.51422 14.2813 4.33467 15.1501 5.3302 15.7768M5.3302 15.7768L9.37589 18.3194L9.37687 18.32C9.56392 18.4363 9.77982 18.498 10.0001 18.498C10.2204 18.498 10.4362 18.4364 10.6233 18.32L10.6244 18.3194L14.6687 15.777V15.777C15.6644 15.1505 16.4852 14.2817 17.0541 13.252C17.6231 12.2222 17.9217 11.065 17.9221 9.88857" fill="#C12828"/>
</svg>
