<svg width="20" height="20" viewBox="0 0 20 20" fill="none" xmlns="http://www.w3.org/2000/svg">
<path d="M10.0001 9.54171C9.42432 9.54171 8.87211 9.31298 8.46497 8.90584C8.05783 8.49869 7.8291 7.94649 7.8291 7.37071C7.8291 6.79492 8.05783 6.24272 8.46497 5.83558C8.87211 5.42844 9.42432 5.19971 10.0001 5.19971C10.576 5.19971 11.1283 5.42849 11.5356 5.83572C11.9428 6.24296 12.1716 6.79529 12.1716 7.37121C12.1716 7.94712 11.9428 8.49945 11.5356 8.90669C11.1283 9.31392 10.576 9.54271 10.0001 9.54271V12.7987" stroke="#73C128" stroke-width="1.5" stroke-linecap="round" stroke-linejoin="round"/>
<path d="M18.6721 9.88983V4.60983C18.6721 4.20471 18.5446 3.80987 18.3077 3.48124C18.0708 3.15262 17.7365 2.90687 17.3521 2.77883L12.4381 1.13983C10.8546 0.618755 9.14569 0.618755 7.56213 1.13983L2.64812 2.77783C2.26393 2.90582 1.92973 3.15141 1.69284 3.47984C1.45594 3.80826 1.32835 4.20288 1.32812 4.60783V9.88783C1.32831 11.1912 1.65889 12.4732 2.28898 13.6141C2.91906 14.755 3.82809 15.7176 4.93113 16.4118L8.97913 18.9558C9.28544 19.1468 9.63917 19.248 10.0001 19.248C10.3611 19.248 10.7148 19.1468 11.0211 18.9558L15.0681 16.4118C16.1712 15.7178 17.0803 14.7554 17.7106 13.6147C18.3409 12.474 18.6717 11.1921 18.6721 9.88883" stroke="#73C128" stroke-width="1.5" stroke-linecap="round" stroke-linejoin="round"/>
</svg>
