<svg width="20" height="20" viewBox="0 0 20 20" fill="none" xmlns="http://www.w3.org/2000/svg">
<path fill-rule="evenodd" clip-rule="evenodd" d="M7.93464 5.30525C8.48244 4.75745 9.2254 4.44971 10.0001 4.44971C10.7749 4.44971 11.518 4.75751 12.0659 5.30539C12.6138 5.85328 12.9216 6.59638 12.9216 7.37121C12.9216 8.14604 12.6138 8.88913 12.0659 9.43702C11.6986 9.80431 11.2436 10.0637 10.7501 10.1948V12.7987C10.7501 13.2129 10.4143 13.5487 10.0001 13.5487C9.58589 13.5487 9.2501 13.2129 9.2501 12.7987V10.1938C8.75674 10.0627 8.30184 9.80336 7.93464 9.43617C7.38685 8.88837 7.0791 8.1454 7.0791 7.37071C7.0791 6.59601 7.38685 5.85304 7.93464 5.30525ZM10.0316 8.79236C10.0212 8.79193 10.0107 8.79171 10.0001 8.79171C9.62323 8.79171 9.26179 8.642 8.9953 8.37551C8.72881 8.10902 8.5791 7.74758 8.5791 7.37071C8.5791 6.99383 8.72881 6.6324 8.9953 6.36591C9.26179 6.09942 9.62323 5.94971 10.0001 5.94971C10.3771 5.94971 10.7387 6.09947 11.0053 6.36605C11.2718 6.63264 11.4216 6.9942 11.4216 7.37121C11.4216 7.74821 11.2718 8.10978 11.0053 8.37636C10.7461 8.6355 10.3972 8.78425 10.0316 8.79236Z" fill="#C12828"/>
<path fill-rule="evenodd" clip-rule="evenodd" d="M7.3277 0.427407C9.06354 -0.143771 10.9367 -0.143771 12.6725 0.427407L12.6754 0.428355L17.5892 2.06728C18.1229 2.24508 18.5871 2.58631 18.9161 3.04264C19.2451 3.49897 19.4221 4.04725 19.4221 4.60983V9.88856C19.4221 9.88873 19.4221 9.88838 19.4221 9.88856C19.4221 9.8888 19.4221 9.88958 19.4221 9.88983C19.4215 11.3196 19.0585 12.7259 18.3671 13.9774C17.6755 15.2291 16.6779 16.2851 15.4675 17.0466L11.4203 19.5908L11.4179 19.5923C10.9925 19.8574 10.5014 19.998 10.0001 19.998C9.4989 19.998 9.00771 19.8574 8.58236 19.5923L8.58005 19.5908L4.53205 17.0468C3.32172 16.285 2.32382 15.2286 1.63244 13.9767C0.941063 12.7248 0.578325 11.3181 0.578125 9.88793V4.60783C0.578435 4.04552 0.75561 3.49713 1.08457 3.04108C1.41349 2.58507 1.87752 2.24405 2.41095 2.06632C2.411 2.0663 2.41091 2.06633 2.41095 2.06632L7.3277 0.427407ZM17.9221 9.88857V4.60985C17.9221 4.36217 17.8442 4.12076 17.6993 3.91984C17.5545 3.71892 17.3501 3.56867 17.1151 3.49038L12.2037 1.85225C12.2032 1.8521 12.2028 1.85194 12.2023 1.85178C10.7718 1.38143 9.22835 1.38144 7.7979 1.85181C7.79745 1.85196 7.797 1.8521 7.79655 1.85225L2.8853 3.48934C2.6504 3.56759 2.44595 3.71779 2.30111 3.91859C2.15631 4.11934 2.0783 4.36054 2.07812 4.60805V9.88772C2.07812 9.88776 2.07812 9.88769 2.07812 9.88772C2.07831 11.0642 2.37673 12.2216 2.94551 13.2515C3.51422 14.2813 4.33467 15.1501 5.3302 15.7768M5.3302 15.7768L9.37589 18.3194C9.37621 18.3196 9.37654 18.3198 9.37687 18.32C9.56392 18.4363 9.77982 18.498 10.0001 18.498C10.2204 18.498 10.4362 18.4364 10.6233 18.32C10.6236 18.3198 10.624 18.3196 10.6244 18.3194L14.6687 15.777C14.6688 15.777 14.6686 15.7771 14.6687 15.777C15.6644 15.1505 16.4852 14.2817 17.0541 13.252C17.6231 12.2222 17.9217 11.065 17.9221 9.88857" fill="#C12828"/>
</svg>
