<svg width="22" height="24" viewBox="0 0 22 24" fill="none" xmlns="http://www.w3.org/2000/svg">
<path d="M9.50023 1.5L9.31923 2.043C9.14201 2.5745 8.90162 3.08281 8.60323 3.557C8.20288 4.18816 7.65569 4.71301 7.00841 5.08672C6.36113 5.46043 5.633 5.67188 4.88623 5.703C4.32675 5.7242 3.76675 5.67821 3.21823 5.566L2.65723 5.451L1.15723 8.049L1.53723 8.478C1.91123 8.9 2.23023 9.362 2.49023 9.854C2.83665 10.5163 3.0176 11.2526 3.0176 12C3.0176 12.7474 2.83665 13.4837 2.49023 14.146C2.22874 14.6411 1.90878 15.1031 1.53723 15.522L1.15723 15.951L2.65723 18.549L3.21723 18.434C3.7664 18.3216 4.32708 18.2756 4.88723 18.297C5.63382 18.3283 6.36176 18.5398 7.00885 18.9135C7.65595 19.2872 8.20298 19.812 8.60323 20.443C8.89923 20.913 9.14023 21.422 9.31923 21.957L9.50023 22.5H12.5002L12.6812 21.957C12.8612 21.4197 13.0999 20.915 13.3972 20.443C13.7976 19.8118 14.3448 19.287 14.992 18.9133C15.6393 18.5396 16.3675 18.3281 17.1142 18.297C17.6737 18.2758 18.2337 18.3218 18.7822 18.434L19.3432 18.549L20.8432 15.951L20.4632 15.522C20.0917 15.1031 19.7717 14.6411 19.5102 14.146C19.1638 13.4837 18.9829 12.7474 18.9829 12C18.9829 11.2526 19.1638 10.5163 19.5102 9.854C19.7702 9.362 20.0892 8.9 20.4632 8.478L20.8432 8.049L19.3432 5.451L18.7832 5.566C18.2341 5.67837 17.6734 5.72436 17.1132 5.703C16.3666 5.67172 15.6387 5.46019 14.9916 5.08649C14.3445 4.71279 13.7975 4.18802 13.3972 3.557C13.0988 3.08281 12.8584 2.5745 12.6812 2.043L12.5002 1.5H9.50023Z" stroke="white" stroke-width="1.5"/>
<path d="M14.502 12C14.502 12.9288 14.1331 13.8196 13.4763 14.4763C12.8196 15.1331 11.9288 15.502 11 15.502C10.0713 15.502 9.18051 15.1331 8.52376 14.4763C7.86701 13.8196 7.49805 12.9288 7.49805 12C7.49805 11.0713 7.86701 10.1805 8.52376 9.52376C9.18051 8.86701 10.0713 8.49805 11 8.49805C11.9288 8.49805 12.8196 8.86701 13.4763 9.52376C14.1331 10.1805 14.502 11.0713 14.502 12Z" stroke="white" stroke-width="1.5"/>
</svg>
