<?xml version="1.0" encoding="utf-8"?><svg viewBox="0 0 22 24" xmlns="http://www.w3.org/2000/svg" xmlns:xlink="http://www.w3.org/1999/xlink"><style>:root>svg{display:none}:root>svg:target{display:block}</style><svg fill="none" viewBox="0 0 18 12" id="burger" xmlns="http://www.w3.org/2000/svg"><path d="M0 12v-2h18v2H0zm0-5V5h18v2H0zm0-5V0h18v2H0z" fill="#fff"/></svg><svg fill="none" viewBox="0 0 22 18" id="payments" xmlns="http://www.w3.org/2000/svg"><path fill-rule="evenodd" clip-rule="evenodd" d="M2.038 3.75A1.875 1.875 0 002 4.125V5.25h18V4.125a1.875 1.875 0 00-1.875-1.875H3.875a1.875 1.875 0 00-1.837 1.5zM19.45 15.2c.351-.35.549-.828.549-1.325V6.75H2v7.125a1.875 1.875 0 001.875 1.875h14.25c.497 0 .974-.197 1.326-.55zM1.489 1.74A3.375 3.375 0 013.875.75h14.25A3.375 3.375 0 0121.5 4.125v9.75a3.375 3.375 0 01-3.375 3.375H3.875A3.375 3.375 0 01.5 13.875v-9.75c0-.895.356-1.754.989-2.386zM17 11.25h-2.25a.75.75 0 100 1.5H17a.75.75 0 100-1.5z" fill="#fff"/></svg><svg fill="none" viewBox="0 0 18 18" id="profile" xmlns="http://www.w3.org/2000/svg"><path fill-rule="evenodd" clip-rule="evenodd" d="M5 11.75A3.25 3.25 0 001.75 15 1.25 1.25 0 003 16.25h12A1.25 1.25 0 0016.25 15 3.25 3.25 0 0013 11.75H5zm-3.359-.109A4.75 4.75 0 015 10.25h8A4.75 4.75 0 0117.75 15 2.75 2.75 0 0115 17.75H3A2.75 2.75 0 01.25 15c0-1.26.5-2.468 1.391-3.359zM9 1.75a2.25 2.25 0 100 4.5 2.25 2.25 0 000-4.5zM5.25 4a3.75 3.75 0 117.5 0 3.75 3.75 0 01-7.5 0z" fill="#fff"/></svg><svg fill="none" viewBox="0 0 20 20" id="sec-red" xmlns="http://www.w3.org/2000/svg"><path fill-rule="evenodd" clip-rule="evenodd" d="M7.935 5.305a2.921 2.921 0 112.815 4.89v2.604a.75.75 0 01-1.5 0v-2.605a2.92 2.92 0 01-1.315-4.889zm2.097 3.487H10a1.421 1.421 0 11.032 0z" fill="#C12828"/><path fill-rule="evenodd" clip-rule="evenodd" d="M7.328.427a8.55 8.55 0 015.344 0l.003.001 4.914 1.64a2.68 2.68 0 011.833 2.542v5.279a8.46 8.46 0 01-3.955 7.158L11.42 19.59l-.002.001a2.68 2.68 0 01-2.836 0l-.002-.001-4.048-2.544a8.462 8.462 0 01-3.954-7.16v-5.28a2.681 2.681 0 011.833-2.54L7.328.426zM17.922 9.89v-5.28a1.18 1.18 0 00-.807-1.119l-4.911-1.638h-.002a7.05 7.05 0 00-4.404 0h-.001L2.885 3.49a1.18 1.18 0 00-.807 1.12v5.279a6.96 6.96 0 003.252 5.889m0 0l4.046 2.542v.001a1.18 1.18 0 001.247 0h.001l4.045-2.543a6.96 6.96 0 003.253-5.888" fill="#C12828"/></svg><svg fill="none" viewBox="0 0 20 20" id="security-green" xmlns="http://www.w3.org/2000/svg"><path d="M10 9.542a2.171 2.171 0 110-4.344 2.171 2.171 0 010 4.345v3.256" stroke="#73C128" stroke-width="1.5" stroke-linecap="round" stroke-linejoin="round"/><path d="M18.672 9.89V4.61a1.93 1.93 0 00-1.32-1.831l-4.914-1.64a7.8 7.8 0 00-4.876 0L2.648 2.779a1.93 1.93 0 00-1.32 1.83v5.28a7.71 7.71 0 003.603 6.524l4.048 2.544a1.93 1.93 0 002.042 0l4.047-2.544a7.71 7.71 0 003.604-6.523" stroke="#73C128" stroke-width="1.5" stroke-linecap="round" stroke-linejoin="round"/></svg><svg fill="none" viewBox="0 0 20 20" id="security-red" xmlns="http://www.w3.org/2000/svg"><path fill-rule="evenodd" clip-rule="evenodd" d="M7.935 5.305a2.921 2.921 0 112.815 4.89v2.604a.75.75 0 01-1.5 0v-2.605a2.921 2.921 0 01-1.315-4.889zm2.097 3.487H10a1.421 1.421 0 11.032 0z" fill="#C12828"/><path fill-rule="evenodd" clip-rule="evenodd" d="M7.328.427a8.55 8.55 0 015.344 0l.003.001 4.914 1.64a2.68 2.68 0 011.833 2.542v5.279a8.46 8.46 0 01-3.955 7.158L11.42 19.59l-.002.001a2.68 2.68 0 01-2.836 0l-.002-.001-4.048-2.544a8.462 8.462 0 01-3.954-7.16v-5.28a2.681 2.681 0 011.833-2.54L7.328.426zM17.922 9.89v-5.28a1.18 1.18 0 00-.807-1.119l-4.911-1.638h-.002a7.05 7.05 0 00-4.404 0h-.001L2.885 3.49a1.18 1.18 0 00-.807 1.12v5.279a6.96 6.96 0 003.252 5.889m0 0l4.046 2.542v.001a1.18 1.18 0 001.247 0h.001l4.045-2.543a6.96 6.96 0 003.253-5.888" fill="#C12828"/></svg><svg fill="none" viewBox="0 0 22 24" id="setts" xmlns="http://www.w3.org/2000/svg"><path d="M9.5 1.5l-.18.543a7 7 0 01-.717 1.514 4.63 4.63 0 01-3.717 2.146 7 7 0 01-1.668-.137l-.56-.115-1.5 2.598.38.429c.373.422.692.884.952 1.376a4.63 4.63 0 010 4.292 7.001 7.001 0 01-.953 1.376l-.38.429 1.5 2.598.56-.115a6.996 6.996 0 011.67-.137 4.63 4.63 0 013.716 2.146c.296.47.537.979.716 1.514l.181.543h3l.181-.543c.18-.537.419-1.042.716-1.514a4.63 4.63 0 013.717-2.146 7 7 0 011.668.137l.561.115 1.5-2.598-.38-.429a7.004 7.004 0 01-.953-1.376 4.63 4.63 0 010-4.292c.26-.492.58-.954.953-1.376l.38-.429-1.5-2.598-.56.115a7 7 0 01-1.67.137 4.63 4.63 0 01-3.716-2.146 6.999 6.999 0 01-.716-1.514l-.18-.543h-3z" stroke="#fff" stroke-width="1.5"/><path d="M14.502 12a3.502 3.502 0 11-7.003 0 3.502 3.502 0 017.003 0z" stroke="#fff" stroke-width="1.5"/></svg><svg fill="none" viewBox="0 0 22 22" id="trans" xmlns="http://www.w3.org/2000/svg"><path d="M3.58 7.607L1 7.454C2.849 2.704 8.158 0 13.333 1.344c5.513 1.433 8.788 6.918 7.314 12.25-1.219 4.411-5.304 7.337-9.8 7.406" stroke="#fff" stroke-width="1.5" stroke-linecap="round" stroke-linejoin="round"/><path d="M11 21C5.5 21 1 16 1 10m11.604-1.278c-.352-.37-1.213-1.237-2.575-.62-1.361.615-1.577 2.596.482 2.807.93.095 1.537-.11 2.093.47.556.582.659 2.198-.761 2.634-1.42.436-2.341-.284-2.588-.509m1.653-6.484v.79m0 6.337v.873" stroke="#fff" stroke-width="1.5" stroke-linecap="round" stroke-linejoin="round"/></svg></svg>