<?xml version="1.0" encoding="utf-8"?><svg viewBox="0 0 22 24" xmlns="http://www.w3.org/2000/svg" xmlns:xlink="http://www.w3.org/1999/xlink"><style>:root>svg{display:none}:root>svg:target{display:block}</style><svg fill="none" viewBox="0 0 18 12" id="burger" xmlns="http://www.w3.org/2000/svg"><path d="M0 12v-2h18v2H0zm0-5V5h18v2H0zm0-5V0h18v2H0z" fill="#fff"/></svg><svg fill="none" viewBox="0 0 22 18" id="payments" xmlns="http://www.w3.org/2000/svg"><path fill-rule="evenodd" clip-rule="evenodd" d="M2.038 3.75A1.875 1.875 0 002 4.125V5.25h18V4.125a1.875 1.875 0 00-1.875-1.875H3.875a1.875 1.875 0 00-1.837 1.5zM19.45 15.2c.351-.35.549-.828.549-1.325V6.75H2v7.125a1.875 1.875 0 001.875 1.875h14.25c.497 0 .974-.197 1.326-.55zM1.489 1.74A3.375 3.375 0 013.875.75h14.25A3.375 3.375 0 0121.5 4.125v9.75a3.375 3.375 0 01-3.375 3.375H3.875A3.375 3.375 0 01.5 13.875v-9.75c0-.895.356-1.754.989-2.386zM17 11.25h-2.25a.75.75 0 100 1.5H17a.75.75 0 100-1.5z" fill="#fff"/></svg><svg fill="none" viewBox="0 0 18 18" id="profile" xmlns="http://www.w3.org/2000/svg"><path fill-rule="evenodd" clip-rule="evenodd" d="M5 11.75A3.25 3.25 0 001.75 15 1.25 1.25 0 003 16.25h12A1.25 1.25 0 0016.25 15 3.25 3.25 0 0013 11.75H5zm-3.359-.109A4.75 4.75 0 015 10.25h8A4.75 4.75 0 0117.75 15 2.75 2.75 0 0115 17.75H3A2.75 2.75 0 01.25 15c0-1.26.5-2.468 1.391-3.359zM9 1.75a2.25 2.25 0 100 4.5 2.25 2.25 0 000-4.5zM5.25 4a3.75 3.75 0 117.5 0 3.75 3.75 0 01-7.5 0z" fill="#fff"/></svg><svg fill="none" viewBox="0 0 22 24" id="setts" xmlns="http://www.w3.org/2000/svg"><path d="M9.5 1.5l-.18.543a7 7 0 01-.717 1.514 4.63 4.63 0 01-3.717 2.146 7 7 0 01-1.668-.137l-.56-.115-1.5 2.598.38.429c.373.422.692.884.952 1.376a4.63 4.63 0 010 4.292 7.001 7.001 0 01-.953 1.376l-.38.429 1.5 2.598.56-.115a6.996 6.996 0 011.67-.137 4.63 4.63 0 013.716 2.146c.296.47.537.979.716 1.514l.181.543h3l.181-.543c.18-.537.419-1.042.716-1.514a4.63 4.63 0 013.717-2.146 7 7 0 011.668.137l.561.115 1.5-2.598-.38-.429a7.004 7.004 0 01-.953-1.376 4.63 4.63 0 010-4.292c.26-.492.58-.954.953-1.376l.38-.429-1.5-2.598-.56.115a7 7 0 01-1.67.137 4.63 4.63 0 01-3.716-2.146 6.999 6.999 0 01-.716-1.514l-.18-.543h-3z" stroke="#fff" stroke-width="1.5"/><path d="M14.502 12a3.502 3.502 0 11-7.003 0 3.502 3.502 0 017.003 0z" stroke="#fff" stroke-width="1.5"/></svg><svg fill="none" viewBox="0 0 22 22" id="trans" xmlns="http://www.w3.org/2000/svg"><path d="M3.58 7.607L1 7.454C2.849 2.704 8.158 0 13.333 1.344c5.513 1.433 8.788 6.918 7.314 12.25-1.219 4.411-5.304 7.337-9.8 7.406" stroke="#fff" stroke-width="1.5" stroke-linecap="round" stroke-linejoin="round"/><path d="M11 21C5.5 21 1 16 1 10m11.604-1.278c-.352-.37-1.213-1.237-2.575-.62-1.361.615-1.577 2.596.482 2.807.93.095 1.537-.11 2.093.47.556.582.659 2.198-.761 2.634-1.42.436-2.341-.284-2.588-.509m1.653-6.484v.79m0 6.337v.873" stroke="#fff" stroke-width="1.5" stroke-linecap="round" stroke-linejoin="round"/></svg></svg>