<svg width="22" height="22" viewBox="0 0 22 22" fill="none" xmlns="http://www.w3.org/2000/svg">
<path d="M3.58 7.60696L1 7.45396C2.849 2.70396 8.158 -4.20809e-05 13.333 1.34396C18.846 2.77696 22.121 8.26196 20.647 13.594C19.428 18.005 15.343 20.931 10.847 21" stroke="white" stroke-width="1.5" stroke-linecap="round" stroke-linejoin="round"/>
<path d="M11 21C5.5 21 1 16 1 10M12.604 8.72202C12.252 8.35202 11.391 7.48502 10.029 8.10202C8.668 8.71702 8.452 10.698 10.511 10.909C11.441 11.004 12.048 10.799 12.604 11.379C13.16 11.961 13.263 13.577 11.843 14.013C10.423 14.449 9.502 13.729 9.255 13.504M10.908 7.02002V7.81002M10.908 14.147V15.02" stroke="white" stroke-width="1.5" stroke-linecap="round" stroke-linejoin="round"/>
</svg>
