<svg width="182" height="49" viewBox="0 0 182 49" fill="none" xmlns="http://www.w3.org/2000/svg">
<path fill-rule="evenodd" clip-rule="evenodd" d="M79.3038 23.8496L84.4633 22.9989L80.402 20.9492L87.6448 1.82735C84.3249 0.961978 80.838 0.499993 77.244 0.499993C69.9282 0.499993 63.0614 2.41088 57.1265 5.75258C56.6636 8.19184 56.4191 10.7078 56.4191 13.2815C56.4191 25.9131 62.2773 37.1863 71.4493 44.5894L76.775 30.5305L73.3168 31.1002L71.545 31.3915L70.3981 30.0124L64.7435 23.2006L63.6026 21.825L64.2309 20.1649L70.2911 4.16062C72.5258 3.72362 74.8344 3.49347 77.197 3.49002L71.9627 17.3102L67.2914 16.5577L70.6948 20.6579L74.0634 24.7142L74.0991 24.7081L79.3038 23.8496Z" fill="url(#paint0_radial_1_205)"/>
<path fill-rule="evenodd" clip-rule="evenodd" d="M68.7107 42.1673C69.5861 43.0137 70.4998 43.8231 71.4492 44.5894L72.8764 40.8201C71.5571 41.3063 70.17 41.7562 68.7107 42.1673Z" fill="#216723"/>
<path fill-rule="evenodd" clip-rule="evenodd" d="M77.2423 48.5L76.7289 48.2095L85.263 25.6813H85.2613L93.5291 3.85384C94.8423 4.42185 96.1189 5.05534 97.3563 5.75264C97.821 8.19104 98.0655 10.7079 98.0655 13.2816C98.0655 28.4041 89.6689 41.583 77.2423 48.5Z" fill="url(#paint1_radial_1_205)"/>
<path fill-rule="evenodd" clip-rule="evenodd" d="M77.2423 48.5L76.7289 48.2095L80.9825 36.9795C95.8622 28.074 97.9802 14.7443 98.0516 14.2642C97.6974 28.973 89.3991 41.733 77.2423 48.5Z" fill="#2F63B6"/>
<path d="M170.461 24.4529H177.571C177.727 23.5152 177.636 22.8153 177.301 22.3585C176.926 21.8456 176.182 21.5879 175.072 21.5879C173.808 21.5879 172.771 21.8887 171.965 22.4895C171.341 22.9541 170.84 23.6082 170.461 24.4529ZM175.63 18.1462C178.078 18.1462 179.787 18.7763 180.758 20.0399C181.722 21.2957 181.902 23.1204 181.297 25.5097C181.219 25.8174 181.12 26.1553 181.003 26.5199C180.885 26.8879 180.759 27.2447 180.628 27.5852L180.474 27.986H180.043H169.478C169.417 28.317 169.387 28.6247 169.387 28.9108C169.387 29.559 169.55 30.0796 169.874 30.4675C170.208 30.8666 170.73 31.1562 171.44 31.332C171.986 31.4673 172.643 31.5363 173.408 31.5363C174.276 31.5363 175.108 31.4871 175.899 31.3915C176.695 31.2949 177.455 31.1493 178.173 30.9588L179.201 30.6847L178.942 31.7095L178.374 33.9437L178.284 34.2979L177.928 34.3927C177.155 34.5979 176.316 34.753 175.414 34.8556C174.515 34.9573 173.556 35.009 172.541 35.009C169.625 35.009 167.593 34.26 166.452 32.7654C165.316 31.2769 165.109 29.1039 165.833 26.2492C166.51 23.5755 167.668 21.5577 169.303 20.2002C170.952 18.8315 173.063 18.1462 175.63 18.1462ZM137.447 34.2358L141.407 18.6168L141.525 18.1462H144.533L144.522 18.7772L144.507 19.571C145.134 19.2012 145.763 18.903 146.389 18.6763C147.367 18.3229 148.338 18.1462 149.299 18.1462C150.543 18.1462 151.555 18.3479 152.334 18.753C152.922 19.0581 153.373 19.4701 153.689 19.9899C154.546 19.4495 155.384 19.0262 156.202 18.7228V18.722C157.234 18.3376 158.23 18.1462 159.184 18.1462C161.219 18.1462 162.628 18.7341 163.409 19.9106C164.166 21.0509 164.272 22.7006 163.725 24.8546L161.271 34.5375L161.15 35.009H160.662H157.884H157.08L157.276 34.2358L159.77 24.4004C159.892 23.9194 159.953 23.4962 159.953 23.1334C159.953 22.7205 159.874 22.4016 159.715 22.1809C159.571 21.9775 159.338 21.8353 159.018 21.7551C158.813 21.7051 158.571 21.6793 158.29 21.6793C157.633 21.6793 156.955 21.8301 156.26 22.1309C155.585 22.4231 154.888 22.8558 154.173 23.4255L151.355 34.5375L151.236 35.009H150.748H147.969H147.164L147.361 34.2358L149.843 24.4461C150.101 23.4281 150.102 22.6946 149.846 22.2499C149.625 21.8706 149.146 21.6793 148.406 21.6793C147.707 21.6793 147.007 21.831 146.306 22.1318C145.631 22.4205 144.949 22.8523 144.259 23.4221L141.44 34.5375L141.321 35.009H140.833H138.054H137.25L137.447 34.2358ZM128.506 27.7171C129.181 27.7171 129.846 27.7421 130.499 27.7903C130.923 27.8222 131.348 27.8645 131.77 27.9162L131.178 30.2468C130.496 30.6563 129.783 30.9691 129.041 31.1829C128.227 31.4182 127.365 31.5363 126.459 31.5363C126.11 31.5363 125.813 31.5061 125.571 31.4449H125.568C125.275 31.3734 125.063 31.257 124.935 31.101C124.816 30.9545 124.755 30.7433 124.755 30.4701C124.755 30.2649 124.788 30.0322 124.853 29.7753C125.201 28.4032 126.417 27.7171 128.506 27.7171ZM120.848 29.5194C120.695 30.1219 120.619 30.6769 120.619 31.1769C120.619 32.1103 120.878 32.8852 121.394 33.4989C121.9 34.1014 122.638 34.5237 123.605 34.7642C124.261 34.9271 125.025 35.009 125.893 35.009C126.874 35.009 127.854 34.8711 128.831 34.597C129.582 34.3876 130.333 34.0954 131.08 33.723L131.401 34.5987L131.55 35.009H131.989H133.553H134.041L134.161 34.5375L136.892 23.7677C137.364 21.9017 137.018 20.4795 135.853 19.5064C134.769 18.5996 132.979 18.1462 130.484 18.1462C129.646 18.1462 128.778 18.21 127.884 18.3384C126.991 18.4668 126.078 18.6582 125.144 18.909L124.791 19.0038L124.701 19.3572L124.133 21.5931L123.872 22.6213L124.905 22.3412C125.789 22.1016 126.654 21.9189 127.495 21.7974C128.324 21.6776 129.134 21.6181 129.92 21.6181C130.634 21.6181 131.227 21.6767 131.696 21.7939C132.155 21.9077 132.49 22.0732 132.694 22.2861C132.866 22.4654 132.953 22.7041 132.953 22.9989C132.953 23.1644 132.928 23.3462 132.878 23.5419L132.642 24.4728C132.152 24.4099 131.656 24.359 131.157 24.3228C130.466 24.2711 129.771 24.2444 129.072 24.2444C126.821 24.2444 125.006 24.6779 123.633 25.5441C122.223 26.4328 121.294 27.7593 120.848 29.5194ZM117.143 34.1393C116.158 34.4789 115.161 34.7332 114.155 34.9012C113.141 35.0719 112.118 35.1564 111.086 35.1564C106.999 35.1564 104.151 34.1531 102.548 32.1483C100.943 30.1425 100.634 27.1939 101.619 23.304C102.541 19.6684 104.221 16.9309 106.658 15.0942C109.091 13.26 112.256 12.342 116.15 12.342C117.247 12.342 118.3 12.4204 119.304 12.5756C120.312 12.7307 121.258 12.9643 122.141 13.272L122.679 13.4599L122.54 14.0081L121.936 16.3888L121.759 17.0903L121.088 16.8119C120.291 16.481 119.458 16.2319 118.595 16.0664C117.731 15.9018 116.828 15.819 115.887 15.819C113.097 15.819 110.852 16.4646 109.152 17.7549C107.456 19.0409 106.276 20.9932 105.614 23.6057C104.914 26.369 105.04 28.4127 105.994 29.7314C106.936 31.0329 108.741 31.6837 111.411 31.6837C111.853 31.6837 112.324 31.6544 112.82 31.5984H112.823C113.207 31.5553 113.619 31.4932 114.056 31.4139L115.793 24.5676L115.911 24.0979H116.4H119.179H119.982L119.786 24.8701L117.545 33.7049L117.463 34.0281L117.143 34.1393ZM38.3805 18.1462H43.1649L43.2224 18.7065L44.1648 28.0748L49.9291 18.4513L50.1118 18.1462H50.4686H54.616H55.7752L55.1408 19.1073L44.5155 35.1891H44.5138C43.5391 36.657 42.4357 37.9163 41.207 38.9627C39.9765 40.0099 38.6164 40.8494 37.1274 41.4726L36.5679 41.707L36.3164 41.1589L35.0755 38.4679L34.8014 37.8723L35.4166 37.6327C36.3303 37.2767 37.1657 36.8027 37.9158 36.2191C38.6085 35.6796 39.2325 35.0417 39.7825 34.3125L37.7601 18.8453L37.6678 18.1462H38.3805ZM29.4539 28.3333L29.0467 29.9391C28.4958 30.2546 27.9485 30.4959 27.4064 30.6614C26.805 30.845 26.2029 30.9373 25.6007 30.9373C24.9863 30.9373 24.5834 30.8329 24.3972 30.6261H24.3946C24.231 30.4451 24.2101 30.1106 24.3319 29.628C24.5782 28.6531 25.4988 28.1636 27.0861 28.1636C27.6474 28.1636 28.173 28.1877 28.6586 28.2334C28.9301 28.2592 29.1946 28.2928 29.4539 28.3333ZM19.1272 29.372C18.6607 31.2105 18.8844 32.6197 19.7972 33.5937C20.6796 34.5375 22.1755 35.009 24.284 35.009C25.1595 35.009 26.0384 34.8831 26.9147 34.6323C27.6178 34.4315 28.314 34.1514 28.9988 33.7954L29.7307 34.7582L29.9204 35.009H30.231H32.5432H33.0314L33.1506 34.5375L35.8073 24.0625C35.9561 23.4738 36.031 22.9282 36.031 22.4283C36.031 21.4035 35.7264 20.5527 35.1181 19.8735C34.5299 19.2167 33.6701 18.7479 32.5423 18.4669C31.6799 18.254 30.6583 18.1462 29.4757 18.1462C28.5994 18.1462 27.6474 18.21 26.6232 18.3384C25.6189 18.4651 24.5477 18.6548 23.4164 18.9038L23.0361 18.9875L22.943 19.3572L22.1494 22.4869L21.9014 23.4634L22.8943 23.2419C23.9916 22.9972 25.0237 22.8127 25.9879 22.6912C26.9382 22.5722 27.838 22.5119 28.6829 22.5119C29.1494 22.5119 29.5383 22.5507 29.8455 22.6257V22.6265C30.1475 22.7015 30.3668 22.8101 30.4964 22.9497C30.6 23.0618 30.6531 23.217 30.6531 23.4135C30.6531 23.5419 30.6339 23.6832 30.5948 23.8367L30.4381 24.4538C30.1022 24.4012 29.7594 24.3581 29.4122 24.3254C28.8552 24.2719 28.3053 24.2444 27.7649 24.2444C25.3718 24.2444 23.4547 24.6624 22.0163 25.4968C20.5273 26.3595 19.5623 27.6533 19.1272 29.372ZM0.195797 34.2358L5.58935 12.9652L5.70857 12.4937H15.81C18.1978 12.4937 19.8782 13.0686 20.8485 14.215C21.8283 15.3751 22.0389 17.0567 21.4811 19.259C20.8954 21.5715 19.6223 23.429 17.6661 24.8288C15.7499 26.2001 13.1828 27.1223 9.97085 27.593L9.18766 27.7076L9.25814 26.925L9.57229 23.4161L9.6158 22.9385L10.0901 22.8575C11.8879 22.5515 13.2907 22.0663 14.2966 21.4086C15.2434 20.7898 15.8352 20.0115 16.071 19.0788C16.1485 18.7772 16.1867 18.5074 16.1867 18.2712C16.1867 17.9825 16.1267 17.7583 16.0092 17.6075L16.0075 17.6049C15.8917 17.455 15.6951 17.3437 15.4253 17.2774C15.2208 17.2265 14.9711 17.2007 14.6804 17.2007H9.79071L5.39442 34.5375L5.2752 35.009H4.78701H0.804072H0L0.195797 34.2358Z" fill="white"/>
<path fill-rule="evenodd" clip-rule="evenodd" d="M85.0125 8.77618C86.182 2.96075 77.1971 3.49085 77.1971 3.49085L71.9628 17.3102L67.2906 16.5577L70.6958 20.6579L74.0635 24.7141L74.0992 24.7081L79.3039 23.8496L84.4634 22.9989L80.4021 20.9492L85.0125 8.77618Z" fill="url(#paint2_radial_1_205)"/>
<path fill-rule="evenodd" clip-rule="evenodd" d="M85.0125 8.77637C86.1821 2.96094 77.1972 3.49104 77.1972 3.49104L76.1833 6.16903C83.2399 5.32693 85.0125 8.77637 85.0125 8.77637Z" fill="#308F30"/>
<path fill-rule="evenodd" clip-rule="evenodd" d="M59.4612 16.837L63.6017 21.825L64.2309 20.1649L70.291 4.1606C72.5257 3.7236 74.8343 3.49432 77.197 3.49088C77.197 3.49088 86.1819 2.96077 85.0123 8.77621L87.6438 1.82821C84.3248 0.961975 80.8379 0.499967 77.244 0.499967C69.9272 0.499967 63.0613 2.41 57.1273 5.75255C57.0142 6.34384 56.915 6.93943 56.8289 7.53933C56.3328 10.9896 57.2265 14.1452 59.4612 16.837Z" fill="url(#paint3_radial_1_205)"/>
<path fill-rule="evenodd" clip-rule="evenodd" d="M59.4612 16.837L63.6017 21.825L64.2309 20.1649L65.4431 16.9637C57.8209 13.8375 56.7192 8.60382 56.7192 8.60382C56.533 11.6395 57.4589 14.4244 59.4612 16.837Z" fill="#308F30"/>
<defs>
<radialGradient id="paint0_radial_1_205" cx="0" cy="0" r="1" gradientUnits="userSpaceOnUse" gradientTransform="translate(68.9092 10.6406) scale(28.3272 28.0577)">
<stop stop-color="white"/>
<stop offset="0.27" stop-color="#99D420"/>
<stop offset="0.54" stop-color="#77C528"/>
<stop offset="1" stop-color="#237A2C"/>
</radialGradient>
<radialGradient id="paint1_radial_1_205" cx="0" cy="0" r="1" gradientUnits="userSpaceOnUse" gradientTransform="translate(88.4645 6.5327) scale(40.882 40.493)">
<stop stop-color="white"/>
<stop offset="0.19" stop-color="#78D2D2"/>
<stop offset="0.48" stop-color="#4493D6"/>
<stop offset="1" stop-color="#2B57AE"/>
</radialGradient>
<radialGradient id="paint2_radial_1_205" cx="0" cy="0" r="1" gradientUnits="userSpaceOnUse" gradientTransform="translate(68.1826 21.5293) scale(27.02 26.7629)">
<stop stop-color="white"/>
<stop offset="0.27" stop-color="#99D420"/>
<stop offset="0.54" stop-color="#77C528"/>
<stop offset="1" stop-color="#237A2C"/>
</radialGradient>
<radialGradient id="paint3_radial_1_205" cx="0" cy="0" r="1" gradientUnits="userSpaceOnUse" gradientTransform="translate(73.0983 8.81672) scale(19.7804 19.5922)">
<stop stop-color="white"/>
<stop offset="0.27" stop-color="#99D420"/>
<stop offset="0.54" stop-color="#77C528"/>
<stop offset="1" stop-color="#237A2C"/>
</radialGradient>
</defs>
</svg>
