<svg width="182" height="49" fill="none" xmlns="http://www.w3.org/2000/svg"><path fill-rule="evenodd" clip-rule="evenodd" d="M79.304 23.85l5.16-.851-4.062-2.05 7.243-19.122A41.194 41.194 0 0077.244.5a40.887 40.887 0 00-20.117 5.253 40.347 40.347 0 00-.708 7.528c0 12.632 5.858 23.905 15.03 31.308l5.326-14.058-3.458.57-1.772.29-1.147-1.379-5.654-6.811-1.141-1.376.628-1.66L70.29 4.16a36.232 36.232 0 016.906-.671l-5.234 13.82-4.672-.752 3.404 4.1 3.368 4.056.036-.006 5.205-.858z" fill="url(#paint0_radial_1_205)"/><path fill-rule="evenodd" clip-rule="evenodd" d="M68.71 42.167c.876.847 1.79 1.656 2.74 2.422l1.426-3.769a55.814 55.814 0 01-4.165 1.347z" fill="#216723"/><path fill-rule="evenodd" clip-rule="evenodd" d="M77.242 48.5l-.513-.29 8.534-22.529h-.002L93.53 3.854a40.723 40.723 0 013.827 1.899 40.19 40.19 0 01.71 7.529c0 15.122-8.397 28.301-20.824 35.218z" fill="url(#paint1_radial_1_205)"/><path fill-rule="evenodd" clip-rule="evenodd" d="M77.242 48.5l-.513-.29 4.254-11.23c14.88-8.906 16.997-22.236 17.069-22.716-.355 14.709-8.653 27.469-20.81 34.236z" fill="#2F63B6"/><path d="M170.461 24.453h7.11c.156-.938.065-1.638-.27-2.095-.375-.512-1.119-.77-2.229-.77-1.264 0-2.301.3-3.107.901-.624.465-1.125 1.12-1.504 1.964zm5.169-6.307c2.448 0 4.157.63 5.128 1.894.964 1.256 1.144 3.08.539 5.47a19.873 19.873 0 01-.669 2.076l-.154.4h-10.996a5.114 5.114 0 00-.091.925c0 .648.163 1.169.487 1.556.334.4.856.69 1.566.865.546.135 1.203.204 1.968.204.868 0 1.7-.049 2.491-.145a16.734 16.734 0 002.274-.432l1.028-.274-.259 1.024-.568 2.235-.09.354-.356.095c-.773.205-1.612.36-2.514.463a25.78 25.78 0 01-2.873.153c-2.916 0-4.948-.749-6.089-2.244-1.136-1.488-1.343-3.661-.619-6.516.677-2.673 1.835-4.691 3.47-6.049 1.649-1.369 3.76-2.054 6.327-2.054zm-38.183 16.09l3.96-15.62.118-.47h3.008l-.011.631-.015.794c.627-.37 1.256-.668 1.882-.895a8.523 8.523 0 012.91-.53c1.244 0 2.256.202 3.035.607.588.305 1.039.717 1.355 1.237.857-.54 1.695-.964 2.513-1.267v-.001c1.032-.384 2.028-.576 2.982-.576 2.035 0 3.444.588 4.225 1.765.757 1.14.863 2.79.316 4.944l-2.454 9.683-.121.471h-4.07l.196-.773 2.494-9.836a5.24 5.24 0 00.183-1.267c0-.412-.079-.731-.238-.952-.144-.204-.377-.346-.697-.426a3.095 3.095 0 00-.728-.076c-.657 0-1.335.151-2.03.452-.675.292-1.372.725-2.087 1.294l-2.818 11.113-.119.471h-4.072l.197-.773 2.482-9.79c.258-1.018.259-1.751.003-2.196-.221-.38-.7-.57-1.44-.57-.699 0-1.399.151-2.1.452-.675.288-1.357.72-2.047 1.29l-2.819 11.116-.119.471h-4.071l.197-.773zm-8.941-6.519a27.079 27.079 0 013.264.2l-.592 2.33a8.96 8.96 0 01-2.137.936 9.261 9.261 0 01-2.582.353c-.349 0-.646-.03-.888-.091h-.003c-.293-.072-.505-.188-.633-.344-.119-.146-.18-.358-.18-.63 0-.206.033-.439.098-.696.348-1.372 1.564-2.058 3.653-2.058zm-7.658 1.802a6.791 6.791 0 00-.229 1.658c0 .933.259 1.708.775 2.322.506.602 1.244 1.025 2.211 1.265.656.163 1.42.245 2.288.245.981 0 1.961-.138 2.938-.412.751-.21 1.502-.502 2.249-.874l.321.876.149.41h2.491l.12-.471 2.731-10.77c.472-1.866.126-3.288-1.039-4.262-1.084-.906-2.874-1.36-5.369-1.36a18.3 18.3 0 00-2.6.192c-.893.129-1.806.32-2.74.571l-.353.095-.09.353-.568 2.236-.261 1.028 1.033-.28c.884-.24 1.749-.422 2.59-.544.829-.12 1.639-.179 2.425-.179.714 0 1.307.059 1.776.176.459.114.794.28.998.492.172.18.259.418.259.713 0 .165-.025.347-.075.543l-.236.93a27.935 27.935 0 00-3.57-.228c-2.251 0-4.066.434-5.439 1.3-1.41.889-2.339 2.215-2.785 3.975zm-3.705 4.62a18.516 18.516 0 01-6.057 1.017c-4.087 0-6.935-1.003-8.538-3.008-1.605-2.006-1.914-4.954-.929-8.844.922-3.636 2.602-6.373 5.039-8.21 2.433-1.834 5.598-2.752 9.492-2.752 1.097 0 2.15.078 3.154.234 1.008.155 1.954.388 2.837.696l.538.188-.139.548-.604 2.38-.177.702-.671-.278c-.797-.331-1.63-.58-2.493-.746a14.449 14.449 0 00-2.708-.247c-2.79 0-5.035.646-6.735 1.936-1.696 1.286-2.876 3.238-3.538 5.85-.7 2.764-.574 4.808.38 6.126.942 1.302 2.747 1.953 5.417 1.953.442 0 .913-.03 1.409-.086h.003c.384-.043.796-.105 1.233-.184l1.737-6.846.118-.47h4.071l-.196.772-2.241 8.835-.082.323-.32.111zM38.38 18.146h4.785l.057.56.943 9.369 5.764-9.624.183-.305h5.664l-.635.961L44.516 35.19h-.002c-.975 1.468-2.078 2.727-3.307 3.774a15.494 15.494 0 01-4.08 2.51l-.56.234-.25-.548-1.242-2.691-.274-.596.616-.24a9.914 9.914 0 002.499-1.413 10.156 10.156 0 001.867-1.907L37.76 18.846l-.092-.699h.712zm-8.926 10.187l-.407 1.606a8.025 8.025 0 01-1.64.722 6.157 6.157 0 01-1.806.276c-.615 0-1.018-.104-1.204-.31h-.002c-.164-.182-.185-.516-.063-.999.246-.975 1.167-1.464 2.754-1.464.561 0 1.087.024 1.573.07.271.025.536.059.795.1zm-10.327 1.039c-.466 1.838-.243 3.248.67 4.222.883.944 2.378 1.415 4.487 1.415.876 0 1.754-.126 2.63-.377.704-.2 1.4-.48 2.085-.837l.732.963.19.251h3.11l.12-.471 2.656-10.475a6.708 6.708 0 00.224-1.635c0-1.024-.305-1.875-.913-2.555-.588-.656-1.448-1.125-2.576-1.406-.862-.213-1.884-.32-3.066-.32a23.1 23.1 0 00-2.853.191 35.9 35.9 0 00-3.207.566l-.38.084-.093.37-.794 3.129-.248.976.993-.221a33.57 33.57 0 013.094-.55c.95-.12 1.85-.18 2.695-.18.466 0 .855.039 1.163.114.302.075.52.184.65.324.104.112.157.267.157.463 0 .129-.02.27-.058.424l-.157.617a16.851 16.851 0 00-1.026-.129 17.24 17.24 0 00-1.647-.08c-2.393 0-4.31.417-5.749 1.252-1.489.863-2.454 2.156-2.889 3.875zM.196 34.236l5.393-21.27.12-.472H15.81c2.388 0 4.068.575 5.039 1.721.98 1.16 1.19 2.842.632 5.044-.586 2.313-1.859 4.17-3.815 5.57-1.916 1.371-4.483 2.293-7.695 2.764l-.783.115.07-.783.314-3.509.044-.477.474-.081c1.798-.306 3.2-.792 4.207-1.45.946-.618 1.538-1.396 1.774-2.33.077-.3.116-.57.116-.807 0-.288-.06-.513-.178-.663l-.002-.003c-.115-.15-.312-.261-.582-.328a3.134 3.134 0 00-.745-.076H9.79L5.395 34.538l-.119.471H0l.196-.773z" fill="#fff"/><path fill-rule="evenodd" clip-rule="evenodd" d="M85.013 8.776c1.169-5.815-7.816-5.285-7.816-5.285l-5.234 13.82-4.672-.753 3.405 4.1 3.368 4.056.035-.006 5.205-.858 5.16-.851-4.062-2.05 4.61-12.173z" fill="url(#paint2_radial_1_205)"/><path fill-rule="evenodd" clip-rule="evenodd" d="M85.013 8.776c1.17-5.815-7.816-5.285-7.816-5.285l-1.014 2.678c7.057-.842 8.83 2.607 8.83 2.607z" fill="#308F30"/><path fill-rule="evenodd" clip-rule="evenodd" d="M59.461 16.837l4.14 4.988.63-1.66L70.29 4.16a36.231 36.231 0 016.906-.67s8.985-.53 7.815 5.285l2.632-6.948A41.143 41.143 0 0077.244.5c-7.317 0-14.183 1.91-20.117 5.253a39.003 39.003 0 00-.298 1.786c-.496 3.45.398 6.606 2.632 9.298z" fill="url(#paint3_radial_1_205)"/><path fill-rule="evenodd" clip-rule="evenodd" d="M59.461 16.837l4.14 4.988.63-1.66 1.212-3.201c-7.622-3.126-8.724-8.36-8.724-8.36-.186 3.036.74 5.82 2.742 8.233z" fill="#308F30"/><defs><radialGradient id="paint0_radial_1_205" cx="0" cy="0" r="1" gradientUnits="userSpaceOnUse" gradientTransform="matrix(28.3272 0 0 28.0577 68.91 10.64)"><stop stop-color="#fff"/><stop offset=".27" stop-color="#99D420"/><stop offset=".54" stop-color="#77C528"/><stop offset="1" stop-color="#237A2C"/></radialGradient><radialGradient id="paint1_radial_1_205" cx="0" cy="0" r="1" gradientUnits="userSpaceOnUse" gradientTransform="matrix(40.882 0 0 40.493 88.465 6.533)"><stop stop-color="#fff"/><stop offset=".19" stop-color="#78D2D2"/><stop offset=".48" stop-color="#4493D6"/><stop offset="1" stop-color="#2B57AE"/></radialGradient><radialGradient id="paint2_radial_1_205" cx="0" cy="0" r="1" gradientUnits="userSpaceOnUse" gradientTransform="matrix(27.02 0 0 26.7629 68.183 21.53)"><stop stop-color="#fff"/><stop offset=".27" stop-color="#99D420"/><stop offset=".54" stop-color="#77C528"/><stop offset="1" stop-color="#237A2C"/></radialGradient><radialGradient id="paint3_radial_1_205" cx="0" cy="0" r="1" gradientUnits="userSpaceOnUse" gradientTransform="matrix(19.7804 0 0 19.5922 73.098 8.817)"><stop stop-color="#fff"/><stop offset=".27" stop-color="#99D420"/><stop offset=".54" stop-color="#77C528"/><stop offset="1" stop-color="#237A2C"/></radialGradient></defs></svg>